<mxfile host="Electron" modified="2024-03-18T04:28:57.519Z" agent="Mozilla/5.0 (Windows NT 10.0; Win64; x64) AppleWebKit/537.36 (KHTML, like Gecko) draw.io/23.1.5 Chrome/120.0.6099.109 Electron/28.1.0 Safari/537.36" etag="fqPjhBdaLb1rVsSbsedZ" version="23.1.5" type="device">
  <diagram name="Страница — 1" id="qGrudcaHSjWXr64oxinU">
    <mxGraphModel dx="1049" dy="1856" grid="1" gridSize="10" guides="1" tooltips="1" connect="1" arrows="1" fold="1" page="1" pageScale="1" pageWidth="827" pageHeight="1169" math="0" shadow="0">
      <root>
        <mxCell id="0" />
        <mxCell id="1" parent="0" />
        <mxCell id="QuDfv2WneJ30URJhzzRL-4" value="" style="strokeWidth=2;html=1;shape=mxgraph.flowchart.annotation_1;align=left;pointerEvents=1;" vertex="1" parent="1">
          <mxGeometry x="40" y="40" width="50" height="70" as="geometry" />
        </mxCell>
        <mxCell id="QuDfv2WneJ30URJhzzRL-5" value="&lt;div&gt;#pragma once&lt;/div&gt;&lt;div&gt;#include &amp;lt;vector&amp;gt;&lt;/div&gt;&lt;div&gt;&lt;br&gt;&lt;/div&gt;&lt;div&gt;using namespace std;&lt;/div&gt;" style="text;strokeColor=none;fillColor=none;align=left;verticalAlign=middle;spacingLeft=4;spacingRight=4;overflow=hidden;points=[[0,0.5],[1,0.5]];portConstraint=eastwest;rotatable=0;whiteSpace=wrap;html=1;" vertex="1" parent="1">
          <mxGeometry x="40" y="40" width="220" height="70" as="geometry" />
        </mxCell>
        <mxCell id="QuDfv2WneJ30URJhzzRL-6" value="void ShellSort(vector&amp;lt;int&amp;gt;&amp;amp; vect)" style="ellipse;whiteSpace=wrap;html=1;" vertex="1" parent="1">
          <mxGeometry x="120" y="160" width="240" height="40" as="geometry" />
        </mxCell>
        <mxCell id="QuDfv2WneJ30URJhzzRL-7" style="edgeStyle=orthogonalEdgeStyle;rounded=0;orthogonalLoop=1;jettySize=auto;html=1;exitX=0.5;exitY=1;exitDx=0;exitDy=0;" edge="1" parent="1">
          <mxGeometry relative="1" as="geometry">
            <mxPoint x="240.2941176470589" y="220" as="targetPoint" />
            <mxPoint x="240" y="200" as="sourcePoint" />
          </mxGeometry>
        </mxCell>
        <mxCell id="QuDfv2WneJ30URJhzzRL-8" style="edgeStyle=orthogonalEdgeStyle;rounded=0;orthogonalLoop=1;jettySize=auto;html=1;exitX=0;exitY=0.5;exitDx=0;exitDy=0;exitPerimeter=0;" edge="1" parent="1" source="QuDfv2WneJ30URJhzzRL-10">
          <mxGeometry relative="1" as="geometry">
            <mxPoint x="99.75999999999999" y="290" as="targetPoint" />
          </mxGeometry>
        </mxCell>
        <mxCell id="QuDfv2WneJ30URJhzzRL-9" style="edgeStyle=orthogonalEdgeStyle;rounded=0;orthogonalLoop=1;jettySize=auto;html=1;exitX=1;exitY=0.5;exitDx=0;exitDy=0;exitPerimeter=0;" edge="1" parent="1" source="QuDfv2WneJ30URJhzzRL-10">
          <mxGeometry relative="1" as="geometry">
            <mxPoint x="240" y="360" as="targetPoint" />
            <Array as="points">
              <mxPoint x="360" y="250" />
              <mxPoint x="360" y="360" />
            </Array>
          </mxGeometry>
        </mxCell>
        <mxCell id="QuDfv2WneJ30URJhzzRL-10" value="if (vect.size() &amp;lt; 2)" style="strokeWidth=2;html=1;shape=mxgraph.flowchart.decision;whiteSpace=wrap;" vertex="1" parent="1">
          <mxGeometry x="150" y="220" width="179.52" height="60" as="geometry" />
        </mxCell>
        <mxCell id="QuDfv2WneJ30URJhzzRL-11" value="1" style="text;html=1;strokeColor=none;fillColor=none;align=center;verticalAlign=middle;whiteSpace=wrap;rounded=0;" vertex="1" parent="1">
          <mxGeometry x="119.99999999999999" y="220" width="30" height="30" as="geometry" />
        </mxCell>
        <mxCell id="QuDfv2WneJ30URJhzzRL-12" value="0" style="text;html=1;strokeColor=none;fillColor=none;align=center;verticalAlign=middle;whiteSpace=wrap;rounded=0;" vertex="1" parent="1">
          <mxGeometry x="339.76" y="220" width="30" height="30" as="geometry" />
        </mxCell>
        <mxCell id="QuDfv2WneJ30URJhzzRL-13" style="edgeStyle=orthogonalEdgeStyle;rounded=0;orthogonalLoop=1;jettySize=auto;html=1;exitX=0.5;exitY=1;exitDx=0;exitDy=0;" edge="1" parent="1" source="QuDfv2WneJ30URJhzzRL-14">
          <mxGeometry relative="1" as="geometry">
            <mxPoint x="240" y="360" as="targetPoint" />
            <Array as="points">
              <mxPoint x="100" y="360" />
            </Array>
          </mxGeometry>
        </mxCell>
        <mxCell id="QuDfv2WneJ30URJhzzRL-14" value="return;" style="ellipse;whiteSpace=wrap;html=1;" vertex="1" parent="1">
          <mxGeometry x="40" y="290" width="120" height="40" as="geometry" />
        </mxCell>
        <mxCell id="QuDfv2WneJ30URJhzzRL-15" value="" style="endArrow=classic;html=1;rounded=0;" edge="1" parent="1">
          <mxGeometry width="50" height="50" relative="1" as="geometry">
            <mxPoint x="240" y="360" as="sourcePoint" />
            <mxPoint x="240" y="380" as="targetPoint" />
          </mxGeometry>
        </mxCell>
        <mxCell id="QuDfv2WneJ30URJhzzRL-16" style="edgeStyle=orthogonalEdgeStyle;rounded=0;orthogonalLoop=1;jettySize=auto;html=1;exitX=0.5;exitY=1;exitDx=0;exitDy=0;" edge="1" source="QuDfv2WneJ30URJhzzRL-18" parent="1">
          <mxGeometry relative="1" as="geometry">
            <mxPoint x="239.76" y="460" as="targetPoint" />
          </mxGeometry>
        </mxCell>
        <mxCell id="QuDfv2WneJ30URJhzzRL-17" style="edgeStyle=orthogonalEdgeStyle;rounded=0;orthogonalLoop=1;jettySize=auto;html=1;exitX=1;exitY=0.5;exitDx=0;exitDy=0;" edge="1" source="QuDfv2WneJ30URJhzzRL-18" parent="1">
          <mxGeometry relative="1" as="geometry">
            <mxPoint x="480" y="470" as="targetPoint" />
            <Array as="points">
              <mxPoint x="480" y="400" />
              <mxPoint x="480" y="460" />
            </Array>
          </mxGeometry>
        </mxCell>
        <mxCell id="QuDfv2WneJ30URJhzzRL-18" value="for (int step = vect.size() / 2; &lt;br&gt;step &amp;gt; 0; step /= 2)" style="verticalLabelPosition=middle;verticalAlign=middle;html=1;shape=hexagon;perimeter=hexagonPerimeter2;arcSize=6;size=0.15;labelPosition=center;align=center;" vertex="1" parent="1">
          <mxGeometry x="140" y="380" width="200" height="40" as="geometry" />
        </mxCell>
        <mxCell id="QuDfv2WneJ30URJhzzRL-19" value="1" style="text;html=1;strokeColor=none;fillColor=none;align=center;verticalAlign=middle;whiteSpace=wrap;rounded=0;" vertex="1" parent="1">
          <mxGeometry x="209.76" y="420" width="30" height="30" as="geometry" />
        </mxCell>
        <mxCell id="QuDfv2WneJ30URJhzzRL-20" value="{" style="text;html=1;strokeColor=none;fillColor=none;align=center;verticalAlign=middle;whiteSpace=wrap;rounded=0;" vertex="1" parent="1">
          <mxGeometry x="239.76" y="420" width="30" height="30" as="geometry" />
        </mxCell>
        <mxCell id="QuDfv2WneJ30URJhzzRL-21" value="0" style="text;html=1;strokeColor=none;fillColor=none;align=center;verticalAlign=middle;whiteSpace=wrap;rounded=0;" vertex="1" parent="1">
          <mxGeometry x="339.76" y="370" width="30" height="30" as="geometry" />
        </mxCell>
        <mxCell id="QuDfv2WneJ30URJhzzRL-28" style="edgeStyle=orthogonalEdgeStyle;rounded=0;orthogonalLoop=1;jettySize=auto;html=1;exitX=0.5;exitY=1;exitDx=0;exitDy=0;" edge="1" source="QuDfv2WneJ30URJhzzRL-30" parent="1">
          <mxGeometry relative="1" as="geometry">
            <mxPoint x="239.76" y="540" as="targetPoint" />
          </mxGeometry>
        </mxCell>
        <mxCell id="QuDfv2WneJ30URJhzzRL-29" style="edgeStyle=orthogonalEdgeStyle;rounded=0;orthogonalLoop=1;jettySize=auto;html=1;exitX=1;exitY=0.5;exitDx=0;exitDy=0;entryX=-0.026;entryY=0.554;entryDx=0;entryDy=0;entryPerimeter=0;" edge="1" source="QuDfv2WneJ30URJhzzRL-30" parent="1" target="QuDfv2WneJ30URJhzzRL-18">
          <mxGeometry relative="1" as="geometry">
            <mxPoint x="379.76" y="540" as="targetPoint" />
            <Array as="points">
              <mxPoint x="390" y="480" />
              <mxPoint x="390" y="700" />
              <mxPoint x="80" y="700" />
              <mxPoint x="80" y="402" />
            </Array>
          </mxGeometry>
        </mxCell>
        <mxCell id="QuDfv2WneJ30URJhzzRL-30" value="for (int i = step; i &amp;lt; vect.size(); ++i)" style="verticalLabelPosition=middle;verticalAlign=middle;html=1;shape=hexagon;perimeter=hexagonPerimeter2;arcSize=6;size=0.15;labelPosition=center;align=center;" vertex="1" parent="1">
          <mxGeometry x="129.76" y="460" width="220" height="40" as="geometry" />
        </mxCell>
        <mxCell id="QuDfv2WneJ30URJhzzRL-31" value="1" style="text;html=1;strokeColor=none;fillColor=none;align=center;verticalAlign=middle;whiteSpace=wrap;rounded=0;" vertex="1" parent="1">
          <mxGeometry x="209.76" y="500" width="30" height="30" as="geometry" />
        </mxCell>
        <mxCell id="QuDfv2WneJ30URJhzzRL-32" value="{" style="text;html=1;strokeColor=none;fillColor=none;align=center;verticalAlign=middle;whiteSpace=wrap;rounded=0;" vertex="1" parent="1">
          <mxGeometry x="239.76" y="500" width="30" height="30" as="geometry" />
        </mxCell>
        <mxCell id="QuDfv2WneJ30URJhzzRL-33" value="0" style="text;html=1;strokeColor=none;fillColor=none;align=center;verticalAlign=middle;whiteSpace=wrap;rounded=0;" vertex="1" parent="1">
          <mxGeometry x="339.76" y="450" width="30" height="30" as="geometry" />
        </mxCell>
        <mxCell id="QuDfv2WneJ30URJhzzRL-34" style="edgeStyle=orthogonalEdgeStyle;rounded=0;orthogonalLoop=1;jettySize=auto;html=1;exitX=0.5;exitY=1;exitDx=0;exitDy=0;" edge="1" source="QuDfv2WneJ30URJhzzRL-36" parent="1">
          <mxGeometry relative="1" as="geometry">
            <mxPoint x="240" y="620" as="targetPoint" />
          </mxGeometry>
        </mxCell>
        <mxCell id="QuDfv2WneJ30URJhzzRL-35" style="edgeStyle=orthogonalEdgeStyle;rounded=0;orthogonalLoop=1;jettySize=auto;html=1;exitX=1;exitY=0.5;exitDx=0;exitDy=0;entryX=0;entryY=0.5;entryDx=0;entryDy=0;" edge="1" source="QuDfv2WneJ30URJhzzRL-36" parent="1" target="QuDfv2WneJ30URJhzzRL-30">
          <mxGeometry relative="1" as="geometry">
            <mxPoint x="380" y="620" as="targetPoint" />
            <Array as="points">
              <mxPoint x="380" y="560" />
              <mxPoint x="380" y="690" />
              <mxPoint x="90" y="690" />
              <mxPoint x="90" y="480" />
            </Array>
          </mxGeometry>
        </mxCell>
        <mxCell id="QuDfv2WneJ30URJhzzRL-36" value="for (int j = i - step; (j &amp;gt;= 0) &amp;amp;&amp;amp; &lt;br&gt;(vect[j] &amp;gt; vect[j + step]); j -= step)" style="verticalLabelPosition=middle;verticalAlign=middle;html=1;shape=hexagon;perimeter=hexagonPerimeter2;arcSize=6;size=0.15;labelPosition=center;align=center;" vertex="1" parent="1">
          <mxGeometry x="120" y="540" width="240" height="40" as="geometry" />
        </mxCell>
        <mxCell id="QuDfv2WneJ30URJhzzRL-37" value="1" style="text;html=1;strokeColor=none;fillColor=none;align=center;verticalAlign=middle;whiteSpace=wrap;rounded=0;" vertex="1" parent="1">
          <mxGeometry x="210" y="580" width="30" height="30" as="geometry" />
        </mxCell>
        <mxCell id="QuDfv2WneJ30URJhzzRL-38" value="{" style="text;html=1;strokeColor=none;fillColor=none;align=center;verticalAlign=middle;whiteSpace=wrap;rounded=0;" vertex="1" parent="1">
          <mxGeometry x="240" y="580" width="30" height="30" as="geometry" />
        </mxCell>
        <mxCell id="QuDfv2WneJ30URJhzzRL-39" value="0" style="text;html=1;strokeColor=none;fillColor=none;align=center;verticalAlign=middle;whiteSpace=wrap;rounded=0;" vertex="1" parent="1">
          <mxGeometry x="340" y="530" width="30" height="30" as="geometry" />
        </mxCell>
        <mxCell id="QuDfv2WneJ30URJhzzRL-41" style="edgeStyle=orthogonalEdgeStyle;rounded=0;orthogonalLoop=1;jettySize=auto;html=1;exitX=0.5;exitY=1;exitDx=0;exitDy=0;entryX=0;entryY=0.5;entryDx=0;entryDy=0;" edge="1" parent="1" source="QuDfv2WneJ30URJhzzRL-40" target="QuDfv2WneJ30URJhzzRL-36">
          <mxGeometry relative="1" as="geometry">
            <Array as="points">
              <mxPoint x="240" y="680" />
              <mxPoint x="100" y="680" />
              <mxPoint x="100" y="560" />
            </Array>
          </mxGeometry>
        </mxCell>
        <mxCell id="QuDfv2WneJ30URJhzzRL-40" value="swap(vect[j], vect[j + step]);" style="shape=parallelogram;html=1;strokeWidth=2;perimeter=parallelogramPerimeter;whiteSpace=wrap;rounded=1;arcSize=12;size=0.16666666666666666;" vertex="1" parent="1">
          <mxGeometry x="139.76" y="620" width="200" height="40" as="geometry" />
        </mxCell>
        <mxCell id="QuDfv2WneJ30URJhzzRL-44" value="}" style="text;html=1;strokeColor=none;fillColor=none;align=center;verticalAlign=middle;whiteSpace=wrap;rounded=0;" vertex="1" parent="1">
          <mxGeometry x="480" y="440" width="30" height="30" as="geometry" />
        </mxCell>
        <mxCell id="QuDfv2WneJ30URJhzzRL-45" value="}" style="text;html=1;strokeColor=none;fillColor=none;align=center;verticalAlign=middle;whiteSpace=wrap;rounded=0;" vertex="1" parent="1">
          <mxGeometry x="240" y="660" width="30" height="30" as="geometry" />
        </mxCell>
        <mxCell id="QuDfv2WneJ30URJhzzRL-46" value="}" style="text;html=1;strokeColor=none;fillColor=none;align=center;verticalAlign=middle;whiteSpace=wrap;rounded=0;" vertex="1" parent="1">
          <mxGeometry x="349.76" y="660" width="30" height="30" as="geometry" />
        </mxCell>
        <mxCell id="QuDfv2WneJ30URJhzzRL-47" value="}" style="text;html=1;strokeColor=none;fillColor=none;align=center;verticalAlign=middle;whiteSpace=wrap;rounded=0;" vertex="1" parent="1">
          <mxGeometry x="390" y="670" width="30" height="30" as="geometry" />
        </mxCell>
      </root>
    </mxGraphModel>
  </diagram>
</mxfile>
